<svg xmlns="http://www.w3.org/2000/svg" width="24.768" height="20.119" viewBox="0 0 24.768 20.119">
    <defs>
        <style>
            .cls-1{fill:#fff}
        </style>
    </defs>
    <g id="twitter-logo-silhouette" transform="translate(-.001 -57.441)">
        <g id="Group_935" data-name="Group 935" transform="translate(.001 57.441)">
            <path id="Path_3650" d="M24.769 59.821a10.147 10.147 0 0 1-2.917.8 5.1 5.1 0 0 0 2.233-2.809 10.243 10.243 0 0 1-3.229 1.234 5.085 5.085 0 0 0-8.656 4.632A14.425 14.425 0 0 1 1.727 58.37 5.087 5.087 0 0 0 3.3 65.152a5.081 5.081 0 0 1-2.3-.638v.063a5.086 5.086 0 0 0 4.073 4.983 5.147 5.147 0 0 1-1.339.178 4.877 4.877 0 0 1-.956-.094 5.084 5.084 0 0 0 4.745 3.529 10.194 10.194 0 0 1-6.31 2.171A10.8 10.8 0 0 1 0 75.274a14.362 14.362 0 0 0 7.789 2.286A14.356 14.356 0 0 0 22.245 63.1l-.017-.658a10.146 10.146 0 0 0 2.541-2.621z" class="cls-1" data-name="Path 3650" transform="translate(-.001 -57.441)"/>
        </g>
    </g>
</svg>
